Coordinates
version=1
nRows=11
nColumns=40
inDegrees=yes

Units are S.I. units (second, meters, Newtons, ...)
Angles are in degrees.

endheader
time	pelvis_tilt	pelvis_list	pelvis_rotation	pelvis_tx	pelvis_ty	pelvis_tz	hip_flexion_r	hip_adduction_r	hip_rotation_r	knee_angle_r	knee_angle_r_beta	ankle_angle_r	subtalar_angle_r	mtp_angle_r	hip_flexion_l	hip_adduction_l	hip_rotation_l	knee_angle_l	knee_angle_l_beta	ankle_angle_l	subtalar_angle_l	mtp_angle_l	lumbar_extension	lumbar_bending	lumbar_rotation	arm_flex_r	arm_add_r	arm_rot_r	elbow_flex_r	pro_sup_r	wrist_flex_r	wrist_dev_r	arm_flex_l	arm_add_l	arm_rot_l	elbow_flex_l	pro_sup_l	wrist_flex_l	wrist_dev_l
     36.72000000	     -1.63137730	     -5.55587465	     -0.96761068	      1.09773205	      0.93310408	      0.52862061	     10.81337308	      4.47927416	    -11.60324745	     15.76737364	     15.76737364	      8.65235990	      0.26010260	     -6.58484026	     27.99847826	    -13.08628692	      1.26795946	     58.35852963	     58.35852963	     10.61380541	    -18.95381618	     15.29810368	    -10.85604707	      6.22162704	      1.51635077	     13.49373557	    -18.29157171	     -0.58857720	     49.78165674	     43.82690765	      0.00000000	      0.00000000	      8.96939152	     -9.52648543	     -9.55145900	     30.42937968	     43.86463456	      0.00000000	      0.00000000
     36.73335714	     -1.77030088	     -5.44517488	     -0.52228330	      1.09638084	      0.93327567	      0.52896349	     10.50140744	      4.40935538	    -11.78902631	     15.46182488	     15.46182488	      8.75554193	      0.08372919	     -6.64173885	     29.04645727	    -13.08938284	      1.01431622	     56.16856641	     56.16856641	     10.82328176	    -19.04643344	     15.59790443	    -10.89623964	      6.04576044	      1.51113339	     14.58324399	    -18.35105912	     -0.64111299	     51.01838514	     43.81320684	      0.00000000	      0.00000000	      8.02552163	     -9.61637382	     -9.70685529	     29.91149486	     43.91440762	      0.00000000	      0.00000000
     36.74671429	     -1.88502840	     -5.33327909	     -0.07937931	      1.09508498	      0.93342587	      0.52924277	     10.17468833	      4.32289772	    -12.03918912	     15.19062285	     15.19062285	      8.89952901	     -0.01036700	     -6.72640277	     29.90001267	    -13.03833229	      0.70390991	     53.72056262	     53.72056262	     10.94174087	    -19.07998887	     15.88699536	    -10.95621277	      5.88392229	      1.46595380	     15.61552081	    -18.46194228	     -0.52611422	     52.49359756	     43.78579359	      0.00000000	      0.00000000	      7.11785647	     -9.70861096	     -9.89137249	     29.33220707	     43.97371363	      0.00000000	      0.00000000
     36.76007143	     -2.02555224	     -5.25056765	      0.34414721	      1.09377167	      0.93347058	      0.52946685	      9.90446745	      4.25775863	    -12.33004652	     14.96346271	     14.96346271	      9.04317365	     -0.05648561	     -6.82521065	     30.62791804	    -12.92068183	      0.44923666	     51.06701025	     51.06701025	     11.00118671	    -19.09200603	     16.10371439	    -11.00799254	      5.74221203	      1.48103318	     16.55993665	    -18.73182218	     -0.24214511	     54.13868610	     43.75191190	      0.00000000	      0.00000000	      6.31121990	     -9.74531983	    -10.13241770	     28.73913995	     44.05389144	      0.00000000	      0.00000000
     36.77342857	     -2.19411219	     -5.10140775	      0.73804797	      1.09243622	      0.93348216	      0.52954170	      9.68955648	      4.11125685	    -12.55406835	     14.77564108	     14.77564108	      9.21360731	     -0.13733267	     -6.88167720	     31.23210025	    -12.62575786	      0.23908323	     48.23739636	     48.23739636	     10.94269493	    -19.04475521	     16.32216655	    -11.01823178	      5.53746074	      1.62102956	     17.46316530	    -18.95278947	     -0.08953404	     55.31128964	     43.72785536	      0.00000000	      0.00000000	      5.58942186	     -9.79550152	    -10.29127160	     28.24078324	     44.10099366	      0.00000000	      0.00000000
     36.78678571	     -2.35325397	     -4.97853033	      1.12677662	      1.09112168	      0.93342006	      0.52945721	      9.48059831	      3.97803786	    -12.80358223	     14.61582850	     14.61582850	      9.40153718	     -0.16719540	     -6.95007601	     31.71075265	    -12.23812364	      0.19176895	     45.30716282	     45.30716282	     10.81120973	    -18.93500663	     16.35492028	    -11.04899771	      5.36989330	      1.63992278	     18.42019731	    -19.12817823	      0.11058841	     56.66033506	     43.69769148	      0.00000000	      0.00000000	      4.85917400	     -9.84078659	    -10.46820339	     27.68758231	     44.15361922	      0.00000000	      0.00000000
     36.80014286	     -2.52953058	     -4.90479736	      1.49816658	      1.08982481	      0.93321605	      0.52915551	      9.30813668	      3.85382795	    -13.20503291	     14.49490734	     14.49490734	      9.62029424	      0.06324069	     -7.07858594	     32.07124557	    -11.83593872	      0.24080853	     42.23596218	     42.23596218	     10.03623465	    -18.75690199	     14.61555058	    -11.09635193	      5.31275927	      1.81272519	     18.86221043	    -19.86554579	      1.22261650	     59.37540597	     43.66261471	      0.00000000	      0.00000000	      4.39806771	     -9.72481096	    -11.27566699	     26.89248580	     44.43281609	      0.00000000	      0.00000000
     36.81350000	     -2.74104147	     -4.76572087	      1.82799601	      1.08855829	      0.93303912	      0.52878748	      9.17436887	      3.69635757	    -13.32978863	     14.37036179	     14.37036179	      9.82526991	     -0.08655898	     -7.11752034	     32.41168262	    -11.25628445	      0.50662070	     39.28646702	     39.28646702	      9.97529449	    -18.32440257	     14.72305934	    -11.05315362	      5.07870962	      1.96216352	     19.78038200	    -19.91925771	      1.13705097	     60.01948212	     43.66152688	      0.00000000	      0.00000000	      3.83197430	     -9.72939574	    -11.37034504	     26.54038668	     44.45955740	      0.00000000	      0.00000000
     36.82685714	     -2.87914210	     -4.67952807	      2.18798602	      1.08740539	      0.93288098	      0.52818860	      8.94854989	      3.55156372	    -13.67236251	     14.25585635	     14.25585635	     10.09935229	      0.10638948	     -7.17427397	     32.46076823	    -10.73223926	      0.79555527	     36.07953858	     36.07953858	      8.57051352	    -17.82450129	     11.40837569	    -11.09139653	      5.03280314	      1.94761141	     20.46631277	    -20.03971016	      1.60433498	     61.67036441	     43.74765742	      0.00000000	      0.00000000	      3.36421017	     -9.61640585	    -12.39433421	     25.87809116	     44.83236736	      0.00000000	      0.00000000
     36.84021429	     -3.05900359	     -4.57778223	      2.47053980	      1.08626776	      0.93269701	      0.52754392	      8.76756551	      3.41547140	    -13.80693402	     14.12228358	     14.12228358	     10.29886142	      0.03936292	     -7.23340171	     32.63667059	    -10.19117602	      1.18393072	     33.35564177	     33.35564177	      8.58881771	    -16.67101066	     11.42343299	    -11.08420392	      4.89756701	      1.97897741	     21.42568194	    -19.94622953	      1.51146810	     62.34779845	     43.75155186	      0.00000000	      0.00000000	      2.83377064	     -9.68082191	    -12.49839957	     25.55107152	     44.86647459	      0.00000000	      0.00000000
     36.85357143	     -3.28415606	     -4.49636029	      2.74859196	      1.08528789	      0.93242414	      0.52675960	      8.59454894	      3.29711966	    -13.97304454	     13.94211791	     13.94211791	     10.51747679	      0.02688695	     -7.30100290	     32.82399530	     -9.70151439	      1.54143657	     30.85614079	     30.85614079	      8.65452434	    -15.16406934	     11.33870226	    -10.96526030	      4.78871931	      2.07170859	     22.21241865	    -19.83158985	      1.49461024	     62.97036186	     43.74642706	      0.00000000	      0.00000000	      2.35398342	     -9.66719578	    -12.56619305	     25.28832177	     44.88588417	      0.00000000	      0.00000000
